<svg xmlns="http://www.w3.org/2000/svg" width="64" height="64"><path d="M50.701 10.128l-2.848 2.848C52.292 18.07 55 24.712 55 32s-2.708 13.93-7.146 19.023l2.848 2.849C55.861 48.049 59 40.393 59 32s-3.139-16.049-8.299-21.872zM31 15a2.97 2.97 0 0 0-1.891.689l-.009-.011-10.162 8.315H8.992v.008A3 3 0 0 0 6 27v10a3 3 0 0 0 3 3h10.024l10.211 7.426.005-.007c.496.362 1.1.581 1.76.581a3 3 0 0 0 3-3V18a3 3 0 0 0-3-3zm11.902 2.926l-2.846 2.847C42.52 23.852 44 27.75 44 32s-1.48 8.148-3.943 11.227l2.846 2.848A21.907 21.907 0 0 0 48 32c0-5.355-1.917-10.26-5.098-14.074z"/></svg>