<?xml version="1.0" standalone="no"?>
<!DOCTYPE svg PUBLIC "-//W3C//DTD SVG 20010904//EN"
 "http://www.w3.org/TR/2001/REC-SVG-20010904/DTD/svg10.dtd">
<svg version="1.0" xmlns="http://www.w3.org/2000/svg"
 width="192.000000pt" height="192.000000pt" viewBox="0 0 192.000000 192.000000"
 preserveAspectRatio="xMidYMid meet">
<metadata>
Created by potrace 1.11, written by Peter Selinger 2001-2013
</metadata>
<g transform="translate(0.000000,192.000000) scale(0.100000,-0.100000)"
fill="#000000" stroke="none">
<path d="M0 960 l0 -960 960 0 960 0 0 960 0 960 -960 0 -960 0 0 -960z m318
100 c-3 -116 -3 -210 -1 -210 2 0 18 16 35 36 52 59 100 78 198 78 67 0 93 -4
125 -21 115 -61 175 -195 175 -392 -1 -256 -112 -404 -304 -404 -81 0 -141 21
-199 72 l-36 33 -23 -46 -22 -46 -80 0 -81 0 3 555 2 555 107 0 106 0 -5 -210z
m930 -130 c-2 -187 -3 -340 -2 -340 0 0 39 46 87 103 48 56 122 139 164 185
l78 83 117 -3 117 -3 -154 -168 c-85 -92 -155 -172 -155 -177 0 -5 72 -106
160 -224 88 -118 160 -217 160 -220 0 -3 -53 -6 -118 -6 l-118 0 -109 153
c-59 83 -112 156 -116 161 -4 5 -30 -8 -58 -30 l-51 -38 0 -123 0 -123 -105 0
-105 0 0 555 0 555 106 0 106 0 -4 -340z"/>
<path d="M400 782 c-60 -33 -75 -78 -75 -222 0 -103 3 -132 19 -164 25 -51 68
-76 129 -76 91 0 139 54 156 174 11 79 -1 186 -27 230 -41 71 -130 96 -202 58z"/>
</g>
</svg>
