<svg xmlns="http://www.w3.org/2000/svg" width="28" height="28" viewBox="0 0 99.9 99.8"><path d="M0.1 0.1L0.1 99.7 99.8 99.7 99.8 0.1 0.1 0.1zM10.6 37L17.7 37 17.7 62.1C20.6 56.6 24.9 53.9 30.7 53.9 35.4 53.9 39.1 55.6 41.8 59 44.5 62.5 45.8 67.1 45.8 73.1 45.8 79.5 44.3 84.8 41.2 88.7 38.2 92.7 34.2 94.7 29.2 94.7 24.6 94.7 20.7 92.9 17.7 89.4L16.8 94.2 10.6 94.2 10.6 37zM56.9 37L63.9 37 63.9 72.8 80.7 54.8 88.7 54.8 70.7 73 91.4 93.8 82 93.8 63.9 74.9 63.9 93.8 56.9 93.8 56.9 37zM29.2 60.1C25.3 60.1 21.4 62.2 17.7 66.5L17.7 84.5C21.3 87.7 24.8 89.4 28.1 89.4 34.9 89.4 38.3 84.2 38.3 73.8 38.3 64.7 35.3 60.1 29.2 60.1z" style="stroke-width:0.2px;stroke:#000"/></svg>
