<svg xmlns="http://www.w3.org/2000/svg" viewBox="0 0 512 512">
  <path fill="#f7b239" d="M331.164 202.563a237.905 237.905 0 00-22.589 19.904c-22.866 22.842-40.65 49.982-52.583 79.495-11.921-29.513-29.717-56.653-52.571-79.495a236.697 236.697 0 00-22.601-19.916c18.218-38.591 43.287-74.739 75.172-106.623 31.896 31.884 56.954 68.043 75.172 106.635z"/>
  <g fill="#f95428">
    <path d="M255.992 301.961c-11.403 28.212-17.447 58.604-17.447 89.525 0 2.637.036 5.286.144 7.923-24.335-60-72.27-107.587-131.934-131.705v-.012c-1.144-32.439 4.347-65.636 17.303-97.677 20.831 8.417 39.832 19.434 56.761 32.535a236.697 236.697 0 0122.601 19.916c22.854 22.842 40.651 49.983 52.572 79.495z"/>
    <path d="M405.24 267.705c-84.745 34.257-145.841 115.895-149.236 213.15-1.011-28.79-7.068-56.22-17.315-81.445a193.863 193.863 0 01-.144-7.923c0-30.921 6.045-61.313 17.447-89.525 11.933-29.513 29.717-56.653 52.583-79.495a237.905 237.905 0 0122.589-19.904c16.942-13.113 35.942-24.13 56.785-32.547 12.956 32.041 18.435 65.238 17.291 97.677v.012z"/>
  </g>
  <g fill="#31af0e">
    <path d="M494.488 250.402c2.818 0 5.635.048 8.477.144-4.6 131.801-115.172 234.908-246.961 230.309 3.396-97.255 64.492-178.893 149.236-213.15 27.634-11.174 57.773-17.303 89.248-17.303zM238.689 399.409c10.247 25.226 16.304 52.655 17.315 81.445-131.801 4.6-242.374-98.507-246.974-230.308 2.842-.096 5.659-.144 8.477-.144 31.475 0 61.626 6.129 89.248 17.303 59.664 24.118 107.599 71.704 131.934 131.704z"/>
  </g>
  <g fill="#333">
    <path d="M503.284 241.523c-30.681-1.073-60.701 3.437-88.907 13.074-.561-30.125-6.613-59.657-18.053-87.969a9.031 9.031 0 00-11.757-4.99c-17.868 7.219-34.602 16.337-50.073 27.239-18.572-36.63-42.787-70.01-72.118-99.331a9.03 9.03 0 00-12.77.001c-29.345 29.345-53.558 62.72-72.116 99.316-15.462-10.895-32.189-20.009-50.052-27.225a9.03 9.03 0 00-11.756 4.99c-11.459 28.358-17.514 57.939-18.059 88.115-27.821-9.561-57.802-14.304-88.907-13.22a9.03 9.03 0 00-8.71 9.34c4.667 133.635 114.858 239.166 247.549 239.166 2.801 0 5.626-.051 8.446-.144 2.827.095 5.639.144 8.447.144 132.679 0 242.882-105.538 247.548-239.166a9.033 9.033 0 00-8.712-9.34zm-106.935 20.035c-25.721 11.127-49.616 26.708-70.719 46.388-33.781 31.501-57.575 70.871-69.666 114.263a245.653 245.653 0 00-8.296-24.517 202.148 202.148 0 01-.089-6.204c0-29.597 5.65-58.577 16.791-86.138 11.67-28.877 28.691-54.616 50.594-76.505 19.65-19.662 42.457-35.391 67.901-46.844 9.235 25.698 13.759 52.392 13.484 79.557zm-140.356-152.7c25.894 27.165 47.344 57.764 63.898 91.151a247.135 247.135 0 00-17.699 16.065 246.083 246.083 0 00-46.193 63.998c-11.872-23.693-27.349-45.161-46.193-63.993a246.736 246.736 0 00-17.714-16.083c16.541-33.357 37.993-63.954 63.901-91.138zm-126.85 73.143c25.446 11.455 48.25 27.185 67.891 46.848 21.086 21.074 37.623 45.703 49.224 73.233-7.739 19.991-12.816 40.654-15.183 61.733-26.621-45.203-67.137-81.123-115.419-102.079-.296-27.226 4.23-53.981 13.487-79.735zM18.56 259.432c57.953.248 112.867 21.972 155.494 61.724 42.63 39.753 68.133 93.01 72.42 150.81-119.468-.562-219.021-93.396-227.914-212.534zm246.967 212.533c4.288-57.799 29.788-111.056 72.42-150.81s97.536-61.479 155.495-61.724c-8.896 119.146-108.437 211.984-227.915 212.534z"/>
    <circle cx="14.088" cy="206.106" r="9.031"/>
    <circle cx="124.058" cy="105.841" r="9.031"/>
    <circle cx="255.992" cy="31.002" r="9.031"/>
    <circle cx="387.949" cy="105.841" r="9.031"/>
    <circle cx="497.896" cy="206.106" r="9.031"/>
  </g>
</svg>
